<svg width="5234" height="1588" xmlns="http://www.w3.org/2000/svg" xmlns:xlink="http://www.w3.org/1999/xlink" xml:space="preserve" overflow="hidden"><defs><clipPath id="clip0"><rect x="-88" y="628" width="5234" height="1588"/></clipPath></defs><g clip-path="url(#clip0)" transform="translate(88 -628)"><path d="M-88 892.672C-88 746.497 30.4971 628 176.671 628L4881.33 628C5027.5 628 5146 746.497 5146 892.672L5146 1951.33C5146 2097.5 5027.5 2216 4881.33 2216L176.671 2216C30.4971 2216-88 2097.5-88 1951.33Z" fill="#FAF0E6" fill-rule="evenodd"/><g><g><g><g><path d="M609.796 260.041C609.796 113.958 728.221-4.46495 874.304-4.46495L1932.29-4.46495C2078.37-4.46495 2196.8 113.958 2196.8 260.041L2196.8 1318.66C2196.8 1464.75 2078.37 1583.17 1932.29 1583.17L874.304 1583.17C728.221 1583.17 609.796 1464.75 609.796 1318.66Z" fill="#FAF0E6" fill-rule="evenodd" transform="matrix(1 0 0 1.00023 -442.796 632.466)"/><path d="M1911.7 1259.78 1890.68 1248.51C1906.63 1222.93 1902.07 1188.69 1884.1 1151.94 1798.14 985.369 1541.57 825.604 1375.29 742.745 1224.93 668.632 1000.86 579.333 832.614 592.478 792.454 596.438 758.08 608.4 742.146 633.094L712.492 617.22C721.753 601.977 736.182 588.691 756.849 578.45 813.963 551.404 887.642 556.485 948.481 564.612 1208.31 605.59 1496.71 753.921 1702.93 915.44 1775.69 974.481 1846.57 1038.63 1895.08 1120.03 1921.78 1165.57 1936.55 1219.49 1911.7 1259.78Z" fill="#824332" fill-rule="evenodd" transform="matrix(1 0 0 1.00023 -442.796 632.466)"/><path d="M1843.89 575.689C1873.07 571.093 1902.58 567.95 1932.08 567.697 1931.36 571.362 1930.87 575.105 1930.63 578.912 1907.02 579.481 1883.37 581.913 1860.07 585.31 1856.56 585.862 1853.05 586.431 1849.52 587.047 1783.93 598.167 1715.03 616.995 1645.45 641.651 1617.66 651.512 1589.75 662.311 1561.9 673.907 1552.54 677.811 1543.18 681.804 1533.83 685.899 1505.55 698.248 1477.38 711.407 1449.53 725.242 1442.31 728.846 1435.09 732.476 1427.91 736.156 1417.22 741.642 1406.58 747.198 1396.02 752.868L1396.02 752.868C1366.94 768.445 1338.37 784.685 1310.47 801.441 1265.17 828.659 1221.73 857.248 1181.06 886.564 1145.94 911.868 1112.88 937.714 1082.51 963.682 1064.59 979.43 1046.19 996.11 1028.25 1013.74 1024.88 1017.06 1021.52 1020.41 1018.18 1023.79 1008.52 1033.56 999.051 1043.62 989.955 1053.95 960.339 1087.46 934.423 1123.78 917.513 1162.74 901.541 1201.64 903.467 1229.65 916.442 1249.48L894.939 1261.05C853.421 1190.82 921.729 1096.38 976.177 1036.4 984.635 1027.07 992.768 1018.56 1000.11 1011.11 1000.14 1011.09 1000.17 1011.06 1000.2 1011.02 1003.45 1007.78 1006.76 1004.56 1010.09 1001.34 1060.39 952.672 1119.37 905.202 1183.76 860.565 1223.5 833.035 1265.26 806.563 1308.34 781.572L1308.34 781.572C1331.01 768.413 1354.03 755.668 1377.3 743.377 1388.1 737.674 1398.96 732.068 1409.85 726.569 1414.73 724.107 1419.59 721.677 1424.49 719.259L1424.49 719.259C1456.78 703.287 1489.39 688.253 1522.06 674.303 1533.74 669.308 1545.42 664.461 1557.1 659.753L1557.12 659.753C1584.86 648.571 1612.53 638.206 1639.99 628.747 1699.1 608.387 1757.18 592.228 1812.44 581.123 1822.86 579.164 1833.34 577.333 1843.87 575.689Z" fill="#824332" fill-rule="evenodd" transform="matrix(1 0 0 1.00023 -442.796 632.466)"/><path d="M1208.75 422.583C1208.75 500.614 1145.35 563.87 1067.14 563.87 988.935 563.87 925.537 500.614 925.537 422.583 925.537 344.553 988.935 281.297 1067.14 281.297 1145.35 281.297 1208.75 344.553 1208.75 422.583Z" fill="#E59366" fill-rule="evenodd" transform="matrix(1 0 0 1.00023 -442.796 632.466)"/><path d="M1153.89 422.583C1153.89 470.67 1115.05 509.652 1067.14 509.652 1019.23 509.652 980.394 470.67 980.394 422.583 980.394 374.497 1019.23 335.515 1067.14 335.515 1115.05 335.515 1153.89 374.497 1153.89 422.583Z" fill="#FEE8D4" fill-rule="evenodd" transform="matrix(1 0 0 1.00023 -442.796 632.466)"/><path d="M1881.05 422.583C1881.05 500.614 1817.66 563.87 1739.45 563.87 1661.24 563.87 1597.84 500.614 1597.84 422.583 1597.84 344.553 1661.24 281.297 1739.45 281.297 1817.66 281.297 1881.05 344.553 1881.05 422.583Z" fill="#E59366" fill-rule="evenodd" transform="matrix(1 0 0 1.00023 -442.796 632.466)"/><path d="M1826.2 422.583C1826.2 470.67 1787.36 509.652 1739.45 509.652 1691.54 509.652 1652.7 470.67 1652.7 422.583 1652.7 374.497 1691.54 335.515 1739.45 335.515 1787.36 335.515 1826.2 374.497 1826.2 422.583Z" fill="#FEE8D4" fill-rule="evenodd" transform="matrix(1 0 0 1.00023 -442.796 632.466)"/><path d="M1905.93 811.666C1905.93 1058.54 1667.44 1234.9 1403.3 1234.9 1139.15 1234.9 900.661 1058.54 900.661 811.666 900.661 564.793 1139.15 255.783 1403.3 255.783 1667.44 255.783 1905.93 564.793 1905.93 811.666Z" fill="#E59366" fill-rule="evenodd" transform="matrix(1 0 0 1.00023 -442.796 632.466)"/><path d="M1625.91 895.029C1625.91 1010.21 1519.69 1041.63 1403.3 1041.63 1286.91 1041.63 1180.68 1010.21 1180.68 895.029 1180.68 779.843 1286.91 620.64 1403.3 620.64 1519.69 620.64 1625.91 779.843 1625.91 895.029Z" fill="#FEE8D4" fill-rule="evenodd" transform="matrix(1 0 0 1.00023 -442.796 632.466)"/><path d="M1308.25 784.698C1308.25 741.246 1353.61 718.232 1403.3 718.232 1452.99 718.232 1498.34 741.246 1498.34 784.698 1498.34 828.155 1452.99 877.06 1403.3 877.06 1353.61 877.06 1308.25 828.155 1308.25 784.698Z" fill="#393434" fill-rule="evenodd" transform="matrix(1 0 0 1.00023 -442.796 632.466)"/><path d="M1250.21 652.852C1250.21 677.69 1229.93 697.821 1204.92 697.821 1179.91 697.821 1159.63 677.69 1159.63 652.852 1159.63 628.016 1179.91 607.882 1204.92 607.882 1229.93 607.882 1250.21 628.016 1250.21 652.852Z" fill="#393434" fill-rule="evenodd" transform="matrix(1 0 0 1.00023 -442.796 632.466)"/><path d="M1646.96 652.852C1646.96 677.69 1626.68 697.821 1601.67 697.821 1576.66 697.821 1556.38 677.69 1556.38 652.852 1556.38 628.016 1576.66 607.882 1601.67 607.882 1626.68 607.882 1646.96 628.016 1646.96 652.852Z" fill="#393434" fill-rule="evenodd" transform="matrix(1 0 0 1.00023 -442.796 632.466)"/><path d="M1496.1 880.753C1492.76 880.753 1490.03 883.483 1490.03 886.845 1490.03 898.039 1485.52 908.169 1478.21 915.517 1470.91 922.858 1460.82 927.394 1449.69 927.394 1438.54 927.394 1428.47 922.858 1421.16 915.517 1416.19 910.516 1412.56 904.239 1410.73 897.421 1409.13 891.508 1409.37 885.448 1409.37 879.388L1409.37 868.13C1409.37 868.13 1397.2 868.13 1397.2 868.13L1397.2 878.215C1397.2 882.418 1397.49 886.622 1397.06 890.806 1396.7 894.403 1395.88 897.956 1394.59 901.35 1392.57 906.65 1389.43 911.485 1385.44 915.497 1378.13 922.839 1368.05 927.375 1356.9 927.375 1345.77 927.375 1335.68 922.839 1328.38 915.497 1321.08 908.156 1316.56 898.02 1316.56 886.826 1316.56 883.464 1313.85 880.734 1310.49 880.734 1307.13 880.734 1304.43 883.464 1304.43 886.826 1304.43 901.382 1310.3 914.579 1319.79 924.128 1329.3 933.67 1342.41 939.57 1356.9 939.57 1371.41 939.57 1384.52 933.67 1394.02 924.128 1397.7 920.428 1400.83 916.18 1403.3 911.517 1405.76 916.18 1408.9 920.428 1412.58 924.128 1422.07 933.67 1435.18 939.57 1449.69 939.57 1464.19 939.57 1477.3 933.67 1486.8 924.128 1496.3 914.579 1502.16 901.401 1502.16 886.826 1502.16 883.464 1499.45 880.734 1496.1 880.734Z" fill="#393434" fill-rule="evenodd" transform="matrix(1 0 0 1.00023 -442.796 632.466)"/><path d="M2106.22 664.76C2105.89 715.336 2077.92 761.02 2049.32 800.389 2002.02 861.554 1939.04 921.366 1866.67 977.357 1849.75 990.459 1832.32 1003.36 1814.45 1015.98 1807.39 1020.99 1800.28 1025.94 1793.09 1030.85 1682.58 1106.47 1557.28 1172.76 1435.19 1222.7 1426.69 1226.18 1418.21 1229.59 1409.75 1232.88 1407.93 1233.61 1406.12 1234.31 1404.32 1235.02 1323.21 1266.49 1244.21 1290.41 1172.7 1304.64 1094.7 1319.46 949.496 1338.73 897.274 1264.73 896.451 1263.48 895.679 1262.23 894.92 1260.97L916.416 1249.4C943.168 1290.31 1017.05 1296.36 1077.71 1291.51 1159.06 1283.94 1246.9 1262.37 1335.59 1231.15 1347.88 1226.83 1360.21 1222.31 1372.52 1217.62 1380.71 1214.5 1388.9 1211.31 1397.09 1208.04 1528.48 1155.57 1658.87 1084.17 1769.96 1007.95 1777.22 1002.96 1784.4 997.954 1791.5 992.921 1826.91 967.853 1860.14 942.358 1890.53 916.965 1892.87 915.006 1895.18 913.061 1897.46 911.122 1959.61 856.84 2028.19 790.713 2061.52 714.584 2070.27 693.713 2074.78 672.498 2071.44 653.745 2082.01 645.459 2090.66 634.787 2096.51 622.553 2102.57 634.66 2106.05 648.68 2106.22 664.76Z" fill="#824332" fill-rule="evenodd" transform="matrix(1 0 0 1.00023 -442.796 632.466)"/><path d="M752.677 733.892C742.146 738.504 732.699 745.15 724.828 753.315 722.372 748.799 720.037 744.219 717.818 739.588 697.215 697.087 691.136 651.793 712.294 616.812L741.878 632.7C730.683 650.07 728.591 673.748 740.022 705.367 743.626 715.203 747.893 724.681 752.677 733.892Z" fill="#824332" fill-rule="evenodd" transform="matrix(1 0 0 1.00023 -442.796 632.466)"/><path d="M1911.67 1259.76C1902.89 1273.97 1889.21 1286.49 1869.36 1296.36 1813.31 1322.71 1740.41 1317.41 1680.63 1309.26 1511.67 1282.57 1351.77 1215.1 1201.41 1135.48 1092.77 1076.72 987.742 1008.82 893.734 928.459 888.363 924.051 881.436 917.673 876.256 913.125 872.04 909.412 863.155 901.407 859.079 897.459 853.542 892.311 848.044 887.1 842.615 881.812 845.633 879.35 848.471 876.696 851.137 873.871 856.412 878.891 861.751 883.853 867.116 888.746 888.809 908.717 914.19 929.818 937.478 948.054 997.673 995.141 1062.38 1038.02 1128.4 1076.57 1167.77 1099.61 1209.18 1121.95 1249.99 1142.23 1387.15 1209.33 1531.91 1266.05 1683.59 1288.19 1735.46 1294.66 1788.87 1298.39 1839.35 1283.51 1864.6 1275.7 1881.2 1263.61 1890.64 1248.48L1911.67 1259.76Z" fill="#824332" fill-rule="evenodd" transform="matrix(1 0 0 1.00023 -442.796 632.466)"/><path d="M2089.64 584.927C2089.64 599.364 2085.42 612.803 2078.13 624.078 2074.82 629.216 2070.87 633.912 2066.4 638.021 2053.62 649.803 2036.58 656.998 2017.88 656.998 1978.25 656.998 1946.12 624.742 1946.12 584.927 1946.12 583.014 1946.19 581.132 1946.34 579.251 1946.62 575.504 1947.2 571.835 1948.04 568.277 1955.51 536.495 1983.94 512.841 2017.88 512.841 2057.51 512.841 2089.64 545.113 2089.64 584.927Z" fill="#824332" fill-rule="evenodd" transform="matrix(1 0 0 1.00023 -442.796 632.466)"/><path d="M859.838 814.224C859.838 833.143 852.483 850.353 840.466 863.18 837.844 865.968 834.999 868.564 831.963 870.911 819.754 880.37 804.42 885.99 787.753 885.99 747.95 885.99 715.681 853.861 715.681 814.224 715.681 796.447 722.162 780.207 732.903 767.673 740.302 759.049 749.711 752.198 760.395 747.823 768.84 744.378 778.077 742.471 787.753 742.471 827.568 742.471 859.838 774.6 859.838 814.224Z" fill="#824332" fill-rule="evenodd" transform="matrix(1 0 0 1.00023 -442.796 632.466)"/></g></g></g></g><rect x="1746" y="1201" width="3191" height="535" fill="#FAF0E6"/><text fill="#824332" font-family="Nunito,Nunito_MSFontService,sans-serif" font-weight="700" font-size="481" transform="matrix(1 0 0 1 1875.68 1645)">PRINSAS 2.0</text></g></svg>